<mxfile host="Electron" modified="2024-01-15T00:13:06.256Z" agent="Mozilla/5.0 (Windows NT 10.0; Win64; x64) AppleWebKit/537.36 (KHTML, like Gecko) draw.io/22.1.16 Chrome/120.0.6099.109 Electron/28.1.0 Safari/537.36" etag="5DBeVTC3s0jTbVEg9LvG" version="22.1.16" type="device">
  <diagram name="PÃ¡gina-1" id="Z6yhb-3faidDQiQsZk_h">
    <mxGraphModel dx="1235" dy="731" grid="1" gridSize="10" guides="1" tooltips="1" connect="1" arrows="1" fold="1" page="1" pageScale="1" pageWidth="827" pageHeight="1169" background="none" math="0" shadow="0">
      <root>
        <mxCell id="0" />
        <mxCell id="1" parent="0" />
        <mxCell id="lz5dERS1Ep25kW0eTTmT-8" style="edgeStyle=orthogonalEdgeStyle;rounded=0;orthogonalLoop=1;jettySize=auto;html=1;exitX=0.988;exitY=0.578;exitDx=0;exitDy=0;entryX=0.007;entryY=0.538;entryDx=0;entryDy=0;entryPerimeter=0;exitPerimeter=0;flowAnimation=1;" edge="1" parent="1" source="lz5dERS1Ep25kW0eTTmT-4" target="lz5dERS1Ep25kW0eTTmT-5">
          <mxGeometry relative="1" as="geometry">
            <mxPoint x="414" y="160" as="targetPoint" />
          </mxGeometry>
        </mxCell>
        <mxCell id="lz5dERS1Ep25kW0eTTmT-10" style="edgeStyle=orthogonalEdgeStyle;rounded=0;orthogonalLoop=1;jettySize=auto;html=1;exitX=0.978;exitY=0.564;exitDx=0;exitDy=0;exitPerimeter=0;entryX=-0.002;entryY=0.613;entryDx=0;entryDy=0;entryPerimeter=0;flowAnimation=1;" edge="1" parent="1" source="lz5dERS1Ep25kW0eTTmT-4" target="lz5dERS1Ep25kW0eTTmT-6">
          <mxGeometry relative="1" as="geometry" />
        </mxCell>
        <mxCell id="lz5dERS1Ep25kW0eTTmT-4" value="" style="image;sketch=0;aspect=fixed;html=1;points=[];align=center;fontSize=12;image=img/lib/mscae/Database_General.svg;" vertex="1" parent="1">
          <mxGeometry x="128.2" y="250" width="83.6" height="110" as="geometry" />
        </mxCell>
        <mxCell id="lz5dERS1Ep25kW0eTTmT-5" value="" style="image;sketch=0;aspect=fixed;html=1;points=[];align=center;fontSize=12;image=img/lib/mscae/Database_General.svg;" vertex="1" parent="1">
          <mxGeometry x="482.2" y="100" width="83.6" height="110" as="geometry" />
        </mxCell>
        <mxCell id="lz5dERS1Ep25kW0eTTmT-6" value="" style="image;sketch=0;aspect=fixed;html=1;points=[];align=center;fontSize=12;image=img/lib/mscae/Database_General.svg;" vertex="1" parent="1">
          <mxGeometry x="482.2" y="395" width="83.6" height="110" as="geometry" />
        </mxCell>
      </root>
    </mxGraphModel>
  </diagram>
</mxfile>
